<svg xmlns="http://www.w3.org/2000/svg"
     width="300"
     height="300">
     <rect width="100%" height="100%" fill="transparent"/>
     
     <!-- Antennes -->
     <line x1="75" x2="75" y1="160" y2="90" stroke="black" fill="black" stroke-width="8"/>
     <circle cx="75" cy="90" r="7.5" stroke="black" fill="white" stroke-width="5"/>
     <line x1="220" x2="220" y1="160" y2="90" stroke="black" fill="black" stroke-width="8"/>
     <circle cx="220" cy="90" r="7.5" stroke="black" fill="white" stroke-width="5"/>

     <!-- Ondes -->
	 <path d ="M22.5,77.5 A 50 50 0 1 1 122.5,77.5" fill ="none" stroke ="black" stroke-width ="5"/>
     <path d ="M170,77.5 A 50 50 0 1 1 270,77.5" fill ="none" stroke ="black" stroke-width ="5"/>
     <path d ="M30,100 A 40 40 0 1 1 115,100" fill ="none" stroke ="black" stroke-width ="5"/>
     <path d ="M175.5,100 A 40 40 0 1 1 262.5,100" fill ="none" stroke ="black" stroke-width ="5"/>
     
     
     <!-- Bloc -->
     <circle cx="75" cy="90" r="7.5" stroke="black" fill="white" stroke-width="5"/>
     <rect x="30" y="160" rx="15" ry="10" width="240" height="75" stroke="black" fill="white" stroke-width="5"/>
     <line x1="50" x2="175" y1="185" y2="185" stroke="black" fill="black" stroke-width="8"/>
     <circle cx="220" cy="195" r="15" stroke="black" fill="white" stroke-width="5"/>

     <!-- Prises Ethernet -->
     <rect x="60" y="210" width="15" height="10" stroke="black" fill="white" stroke-width="5"/>
     <rect x="105" y="210" width="15" height="10" stroke="black" fill="white" stroke-width="5"/>
     <rect x="150" y="210" width="15" height="10" stroke="black" fill="white" stroke-width="5"/>
</svg>