<svg xmlns="http://www.w3.org/2000/svg"
     width="300"
     height="300">
     <rect width="100%" height="100%" fill="transparent"/>
     <rect x="30" y="100" width="240" height="60" stroke="black" fill="transparent" stroke-width="5"/>
     <line x1="30" x2="60" y1="100" y2="50" stroke="black" stroke-width="5" />
     <line x1="270" x2="290" y1="100" y2="50" stroke="black" stroke-width="5" />
     <line x1="60" x2="290" y1="50" y2="50" stroke="black" stroke-width="5" />
     <line x1="270" x2="290" y1="160" y2="110" stroke="black" stroke-width="5" />
     <line x1="290" x2="290" y1="110" y2="50" stroke="black" stroke-width="5" />
     <!-- Première ligne d'interfaces -->
     <rect x="40" y="110" width="15" height="15" stroke="black" fill="transparent" stroke-width="2"/>
     <rect x="45" y="110" width="5" height="5" stroke="black" fill="black" stroke-width="2"/>

     <rect x="65" y="110" width="15" height="15" stroke="black" fill="transparent" stroke-width="2"/>
     <rect x="70" y="110" width="5" height="5" stroke="black" fill="black" stroke-width="2"/>
     <rect x="90" y="110" width="15" height="15" stroke="black" fill="transparent" stroke-width="2"/>
     <rect x="95" y="110" width="5" height="5" stroke="black" fill="black" stroke-width="2"/>
     <rect x="115" y="110" width="15" height="15" stroke="black" fill="transparent" stroke-width="2"/>
     <rect x="120" y="110" width="5" height="5" stroke="black" fill="black" stroke-width="2"/>
     <rect x="140" y="110" width="15" height="15" stroke="black" fill="transparent" stroke-width="2"/>
     <rect x="145" y="110" width="5" height="5" stroke="black" fill="black" stroke-width="2"/>
     <rect x="165" y="110" width="15" height="15" stroke="black" fill="transparent" stroke-width="2"/>
     <rect x="170" y="110" width="5" height="5" stroke="black" fill="black" stroke-width="2"/>
     <rect x="190" y="110" width="15" height="15" stroke="black" fill="transparent" stroke-width="2"/>
     <rect x="195" y="110" width="5" height="5" stroke="black" fill="black" stroke-width="2"/>
     <!-- Deuxième ligne d'interfaces -->
     <rect x="40" y="135" width="15" height="15" stroke="black" fill="transparent" stroke-width="2"/>
     <rect x="45" y="135" width="5" height="5" stroke="black" fill="black" stroke-width="2"/>
     <rect x="65" y="135" width="15" height="15" stroke="black" fill="transparent" stroke-width="2"/>
     <rect x="70" y="135" width="5" height="5" stroke="black" fill="black" stroke-width="2"/>
     <rect x="90" y="135" width="15" height="15" stroke="black" fill="transparent" stroke-width="2"/>
     <rect x="95" y="135" width="5" height="5" stroke="black" fill="black" stroke-width="2"/>
     <rect x="115" y="135" width="15" height="15" stroke="black" fill="transparent" stroke-width="2"/>
     <rect x="120" y="135" width="5" height="5" stroke="black" fill="black" stroke-width="2"/>
     <rect x="140" y="135" width="15" height="15" stroke="black" fill="transparent" stroke-width="2"/>
     <rect x="145" y="135" width="5" height="5" stroke="black" fill="black" stroke-width="2"/>   
     <rect x="165" y="135" width="15" height="15" stroke="black" fill="transparent" stroke-width="2"/>
     <rect x="170" y="135" width="5" height="5" stroke="black" fill="black" stroke-width="2"/>
     <rect x="190" y="135" width="15" height="15" stroke="black" fill="transparent" stroke-width="2"/>
     <rect x="195" y="135" width="5" height="5" stroke="black" fill="black" stroke-width="2"/>
     <!-- Indicateurs lumineux -->
     <ellipse cx="230" cy="120" rx="5" ry="5" stroke="black" fill="green" stroke-width="2" />
     <ellipse cx="250" cy="120" rx="5" ry="5" stroke="black" fill="green" stroke-width="2" />
     <ellipse cx="230" cy="140" rx="5" ry="5" stroke="black" fill="green" stroke-width="2" />
     <ellipse cx="250" cy="140" rx="5" ry="5" stroke="black" fill="red" stroke-width="2" />
</svg>
